<svg xmlns="http://www.w3.org/2000/svg" width="1326.545" height="913" viewBox="0 0 1326.545 913">
  <g id="background" transform="translate(-335.727 -84)">
    <rect id="Rectangle_14" data-name="Rectangle 14" width="1326" height="913" transform="translate(336 84)" fill="#e44f44"/>
    <path id="Subtraction_1" data-name="Subtraction 1" d="M123.273-1781a83.85,83.85,0,0,1-27.242-4.516,83.661,83.661,0,0,1-23.514-12.547,84.313,84.313,0,0,1-18.284-19.076,83.523,83.523,0,0,1-11.553-24.1H-540v-47.516H42.679a83.529,83.529,0,0,1,11.553-24.1,84.312,84.312,0,0,1,18.284-19.076,83.661,83.661,0,0,1,23.514-12.547A83.85,83.85,0,0,1,123.273-1949a83.848,83.848,0,0,1,27.242,4.516,83.661,83.661,0,0,1,23.514,12.547,84.32,84.32,0,0,1,18.284,19.076,83.531,83.531,0,0,1,11.553,24.1H786.545v47.516H203.866a83.531,83.531,0,0,1-11.553,24.1,84.32,84.32,0,0,1-18.284,19.076,83.664,83.664,0,0,1-23.514,12.547A83.848,83.848,0,0,1,123.273-1781Zm0-126.849A42.9,42.9,0,0,0,80.424-1865a42.9,42.9,0,0,0,42.849,42.849A42.9,42.9,0,0,0,166.121-1865,42.9,42.9,0,0,0,123.273-1907.848Z" transform="translate(875.727 2405)" opacity="0.17"/>
    <path id="Subtraction_3" data-name="Subtraction 3" d="M-340.2-1847h-65.343a168.119,168.119,0,0,1,15.231-27.931,169.227,169.227,0,0,1,20.515-24.863,169.241,169.241,0,0,1,24.863-20.515,168.056,168.056,0,0,1,28.537-15.489,167.092,167.092,0,0,1,31.536-9.789A169.2,169.2,0,0,1-251-1949a169.217,169.217,0,0,1,33.858,3.414,167.11,167.11,0,0,1,31.535,9.789,167.962,167.962,0,0,1,28.537,15.489,169.2,169.2,0,0,1,24.863,20.515,169.236,169.236,0,0,1,20.515,24.863A168.032,168.032,0,0,1-96.461-1847H-161.8a111.582,111.582,0,0,0-89.2-45,111.584,111.584,0,0,0-89.2,45Z" transform="translate(1250 2317)" opacity="0.12"/>
    <path id="Subtraction_5" data-name="Subtraction 5" d="M-340.2-1847h-65.343a168.119,168.119,0,0,1,15.231-27.931,169.227,169.227,0,0,1,20.515-24.863,169.241,169.241,0,0,1,24.863-20.515,168.056,168.056,0,0,1,28.537-15.489,167.092,167.092,0,0,1,31.536-9.789A169.2,169.2,0,0,1-251-1949a169.217,169.217,0,0,1,33.858,3.414,167.11,167.11,0,0,1,31.535,9.789,167.962,167.962,0,0,1,28.537,15.489,169.2,169.2,0,0,1,24.863,20.515,169.236,169.236,0,0,1,20.515,24.863A168.032,168.032,0,0,1-96.461-1847H-161.8a111.582,111.582,0,0,0-89.2-45,111.584,111.584,0,0,0-89.2,45Z" transform="translate(747.999 -1237) rotate(180)" opacity="0.12"/>
  </g>
</svg>
